<?xml version="1.0" encoding="utf-8"?>
<!-- Generator: Adobe Illustrator 23.0.1, SVG Export Plug-In . SVG Version: 6.00 Build 0)  -->
<svg version="1.1" xmlns="http://www.w3.org/2000/svg" xmlns:xlink="http://www.w3.org/1999/xlink" x="0px" y="0px"
	 viewBox="0 0 600 600" style="enable-background:new 0 0 600 600;" xml:space="preserve">
<style type="text/css">
	.face{fill:$color;}
	.hour{fill:none;stroke:$color;stroke-width:24;stroke-linecap:round;stroke-miterlimit:10;}
	.minute{fill:none;stroke:$color;stroke-width:12;stroke-linecap:round;stroke-miterlimit:10;}
	.second{fill:none;stroke:$color;stroke-width:4;stroke-linecap:round;stroke-miterlimit:10;}
</style>
<g id="face">
	<circle class="face" cx="300" cy="41.7" r="6"/>
	<circle class="face" cx="327" cy="43.1" r="6"/>
	<circle class="face" cx="353.7" cy="47.3" r="6"/>
	<circle class="face" cx="379.8" cy="54.3" r="6"/>
	<circle class="face" cx="405.1" cy="64" r="6"/>
	<circle class="face" cx="429.2" cy="76.3" r="6"/>
	<circle class="face" cx="451.8" cy="91" r="6"/>
	<circle class="face" cx="472.8" cy="108" r="6"/>
	<circle class="face" cx="492" cy="127.2" r="6"/>
	<circle class="face" cx="509" cy="148.2" r="6"/>
	<circle class="face" cx="523.7" cy="170.8" r="6"/>
	<circle class="face" cx="536" cy="194.9" r="6"/>
	<circle class="face" cx="545.7" cy="220.2" r="6"/>
	<circle class="face" cx="552.7" cy="246.3" r="6"/>
	<circle class="face" cx="556.9" cy="273" r="6"/>
	<circle class="face" cx="558.3" cy="300" r="6"/>
	<circle class="face" cx="556.9" cy="327" r="6"/>
	<circle class="face" cx="552.7" cy="353.7" r="6"/>
	<circle class="face" cx="545.7" cy="379.8" r="6"/>
	<circle class="face" cx="536" cy="405.1" r="6"/>
	<circle class="face" cx="523.7" cy="429.2" r="6"/>
	<circle class="face" cx="509" cy="451.8" r="6"/>
	<circle class="face" cx="492" cy="472.8" r="6"/>
	<circle class="face" cx="472.8" cy="492" r="6"/>
	<circle class="face" cx="451.8" cy="509" r="6"/>
	<circle class="face" cx="429.2" cy="523.7" r="6"/>
	<circle class="face" cx="405.1" cy="536" r="6"/>
	<circle class="face" cx="379.8" cy="545.7" r="6"/>
	<circle class="face" cx="353.7" cy="552.7" r="6"/>
	<circle class="face" cx="327" cy="556.9" r="6"/>
	<circle class="face" cx="300" cy="558.3" r="6"/>
	<circle class="face" cx="273" cy="556.9" r="6"/>
	<circle class="face" cx="246.3" cy="552.7" r="6"/>
	<circle class="face" cx="220.2" cy="545.7" r="6"/>
	<circle class="face" cx="194.9" cy="536" r="6"/>
	<circle class="face" cx="170.8" cy="523.7" r="6"/>
	<circle class="face" cx="148.2" cy="509" r="6"/>
	<circle class="face" cx="127.2" cy="492" r="6"/>
	<circle class="face" cx="108" cy="472.8" r="6"/>
	<circle class="face" cx="91" cy="451.8" r="6"/>
	<circle class="face" cx="76.3" cy="429.2" r="6"/>
	<circle class="face" cx="64" cy="405.1" r="6"/>
	<circle class="face" cx="54.3" cy="379.8" r="6"/>
	<circle class="face" cx="47.3" cy="353.7" r="6"/>
	<circle class="face" cx="43.1" cy="327" r="6"/>
	<circle class="face" cx="41.7" cy="300" r="6"/>
	<circle class="face" cx="43.1" cy="273" r="6"/>
	<circle class="face" cx="47.3" cy="246.3" r="6"/>
	<circle class="face" cx="54.3" cy="220.2" r="6"/>
	<circle class="face" cx="64" cy="194.9" r="6"/>
	<circle class="face" cx="76.3" cy="170.8" r="6"/>
	<circle class="face" cx="91" cy="148.2" r="6"/>
	<circle class="face" cx="108" cy="127.2" r="6"/>
	<circle class="face" cx="127.2" cy="108" r="6"/>
	<circle class="face" cx="148.2" cy="91" r="6"/>
	<circle class="face" cx="170.8" cy="76.3" r="6"/>
	<circle class="face" cx="194.9" cy="64" r="6"/>
	<circle class="face" cx="220.2" cy="54.3" r="6"/>
	<circle class="face" cx="246.3" cy="47.3" r="6"/>
	<circle class="face" cx="273" cy="43.1" r="6"/>
	<circle class="face" cx="300" cy="6" r="6"/>
	<circle class="face" cx="300" cy="23.4" r="6"/>
	<circle class="face" cx="594.8" cy="300" r="6"/>
	<circle class="face" cx="576.6" cy="300" r="6"/>
	<circle class="face" cx="300" cy="594.8" r="6"/>
	<circle class="face" cx="300" cy="576.6" r="6"/>
	<circle class="face" cx="6" cy="300" r="6"/>
	<circle class="face" cx="23.4" cy="300" r="6"/>
	<circle class="face" cx="438.6" cy="59.9" r="6"/>
	<circle class="face" cx="540.1" cy="161.4" r="6"/>
	<circle class="face" cx="540.1" cy="438.6" r="6"/>
	<circle class="face" cx="438.6" cy="540.1" r="6"/>
	<circle class="face" cx="161.4" cy="540.1" r="6"/>
	<circle class="face" cx="59.9" cy="438.6" r="6"/>
	<circle class="face" cx="59.9" cy="161.4" r="6"/>
	<circle class="face" cx="161.4" cy="59.9" r="6"/>
</g>
<g id="hour">
	<line class="hour" x1="300" y1="300" x2="300" y2="120"/>
</g>
<g id="minute">
	<line class="minute" x1="300" y1="300" x2="300" y2="60"/>
</g>
<g id="second">
	<line class="second" x1="300" y1="300" x2="300" y2="40"/>
</g>
</svg>
